<svg xmlns="http://www.w3.org/2000/svg" id="Layer_1" data-name="Layer 1" viewBox="0 0 51.86 8.4">
  <defs>
    <style>
      .cls-1 {
        fill: #f26933;
      }

      .cls-2 {
        fill: #231f20;
      }
    </style>
  </defs>
  <path class="cls-2" d="M0,.34h2.88c.51,0,.97.09,1.37.27.41.18.73.45.97.81.24.36.36.81.36,1.36s-.12,1-.36,1.38c-.24.38-.57.67-.97.86-.41.2-.87.3-1.37.3h-1.09v2.95H0V.34ZM1.79,3.89h.59c.24,0,.46-.04.66-.11.19-.07.35-.19.47-.34.12-.16.17-.37.17-.63s-.06-.47-.17-.63c-.12-.15-.27-.27-.47-.33-.19-.07-.41-.1-.66-.1h-.59s0,2.14,0,2.14Z"/>
  <path class="cls-2" d="M8.3,8.26h-1.82V3.33h1.82v.76h-.03c.03-.09.11-.21.23-.35.12-.14.3-.27.52-.38.22-.11.5-.17.82-.17.23,0,.44.03.63.1.19.07.33.14.42.2l-.71,1.48c-.06-.07-.16-.14-.3-.21s-.32-.11-.53-.11c-.24,0-.44.06-.6.19-.16.12-.27.27-.35.45-.07.18-.11.34-.11.5v2.47h.01Z"/>
  <path class="cls-2" d="M24.36,3.19c.37,0,.7.08.98.23.28.15.51.39.67.71s.24.73.24,1.24v2.89h-1.79v-2.62c0-.34-.05-.62-.16-.83-.1-.21-.31-.32-.62-.32-.18,0-.35.05-.49.14-.14.1-.25.23-.32.4s-.11.37-.11.61v2.62h-1.67v-2.62c0-.34-.06-.62-.17-.83s-.31-.32-.6-.32c-.18,0-.35.05-.49.14s-.25.23-.32.4-.11.38-.11.61v2.62h-1.81V3.33h1.81v.7c.05-.12.15-.25.31-.38s.36-.24.6-.33.49-.13.76-.13c.29,0,.54.04.73.13.2.09.36.2.48.34s.23.3.3.47c.06-.14.17-.29.33-.44.17-.15.37-.27.62-.36.25-.1.52-.14.81-.14h.02Z"/>
  <path class="cls-2" d="M29.85,8.4c-.54,0-1.02-.11-1.44-.33-.42-.22-.75-.53-.98-.92-.24-.39-.36-.84-.36-1.34s.12-.95.36-1.35c.24-.39.57-.71.98-.93.42-.23.9-.34,1.44-.34s1.02.11,1.43.34.73.54.97.93.35.84.35,1.35-.12.95-.35,1.34-.55.7-.97.92-.89.33-1.43.33ZM29.85,6.9c.21,0,.39-.05.54-.14.15-.09.27-.22.35-.39s.13-.36.13-.57-.04-.41-.13-.58c-.08-.17-.2-.3-.35-.4s-.33-.14-.54-.14-.39.05-.54.14c-.15.1-.27.23-.36.4s-.13.36-.13.58.04.4.13.57.21.3.36.39c.15.09.33.14.54.14Z"/>
  <path class="cls-2" d="M35.34,8.26h-1.83V0h1.83v8.26Z"/>
  <path class="cls-2" d="M43.05,3.19c.34,0,.68.07,1.01.21s.6.36.81.66c.21.3.32.7.32,1.19v3.01h-1.83v-2.71c0-.35-.08-.62-.25-.79-.17-.18-.39-.27-.66-.27-.18,0-.35.05-.51.14-.16.09-.29.23-.38.4s-.15.37-.15.58v2.65h-1.82V3.33h1.82v.73c.05-.13.15-.26.3-.4.15-.13.35-.25.58-.34.23-.09.49-.13.76-.13Z"/>
  <path class="cls-2" d="M50.07,8.26v-.8c-.04.08-.13.2-.27.35-.15.15-.34.29-.58.41s-.52.18-.84.18c-.48,0-.9-.12-1.26-.35s-.64-.55-.84-.94-.3-.83-.3-1.31.1-.92.3-1.31.48-.71.84-.94c.36-.24.78-.35,1.26-.35.31,0,.58.05.81.15s.42.21.56.35c.14.13.24.26.3.37v-.72h1.81v4.93h-1.79v-.02ZM47.77,5.8c0,.22.05.42.16.6.1.18.24.32.42.42.17.1.37.15.58.15s.41-.05.58-.15.3-.24.4-.42c.1-.18.15-.38.15-.6s-.05-.42-.15-.6c-.1-.18-.23-.32-.4-.42s-.36-.15-.58-.15-.4.05-.58.15c-.17.1-.31.24-.42.42-.1.18-.16.38-.16.6Z"/>
  <path class="cls-1" d="M16.5,5.73c0-.16-.03-.31-.06-.46l.48-.33-.63-.97-.54.19c-.12-.1-.24-.19-.39-.26-.17-.08-.34-.14-.53-.19l-.09-.52h-1.27l-.09.53c-.19.04-.36.1-.53.18-.15.07-.27.16-.39.26l-.54-.19-.63.97.45.31c-.04.15-.06.31-.06.48s.03.31.06.46l-.45.31.63.97.52-.18c.12.1.25.19.41.26.17.08.35.14.53.18l.09.52h1.27l.09-.51c.19-.04.37-.1.53-.19.15-.08.28-.17.4-.27l.53.19.63-.97-.48-.33c.03-.14.06-.29.06-.44ZM15,5.73c0,.17-.04.32-.11.46-.07.13-.18.24-.31.31-.13.07-.29.11-.47.11s-.34-.04-.47-.11c-.14-.07-.25-.17-.32-.31-.07-.14-.11-.29-.11-.46s.03-.32.11-.46.19-.24.32-.32.29-.12.47-.12.34.04.47.12.24.18.31.32c.07.13.11.29.11.46Z"/>
  <g>
    <rect class="cls-2" x="36.58" y="3.33" width="1.82" height="4.93"/>
    <path class="cls-2" d="M38.65,1.76c0-.09-.02-.17-.04-.25l.22-.16-.3-.48-.25.1c-.05-.05-.11-.09-.18-.13-.09-.04-.17-.07-.27-.1l-.04-.26h-.61l-.05.27c-.08.02-.16.05-.23.09-.07.04-.13.09-.19.13l-.27-.1-.3.48.23.17c-.02.08-.03.15-.03.24,0,.08.01.15.03.22l-.23.17.3.48.26-.1c.06.05.13.1.2.14.07.04.15.06.24.08l.04.27h.61l.04-.25c.1-.02.19-.05.27-.1.07-.04.13-.08.19-.13l.24.09.3-.48-.21-.16c.02-.08.03-.15.03-.23ZM37.88,1.98c-.04.07-.09.12-.15.16-.07.04-.14.06-.23.06s-.17-.02-.23-.06c-.06-.04-.12-.09-.15-.16-.03-.07-.05-.14-.05-.23s.01-.16.05-.23.09-.12.15-.16c.07-.04.14-.06.23-.06s.17.02.23.06c.07.04.11.09.15.16.03.07.05.14.05.23s-.01.16-.05.23Z"/>
  </g>
</svg>