<svg width="68" height="10" viewBox="0 0 68 10" fill="none" xmlns="http://www.w3.org/2000/svg">
<path d="M1.604 7.368L1.508 7.32C1.308 7.048 1.084 6.808 0.836 6.6C0.588 6.392 0.328 6.192 0.0560001 6C0.032 5.976 0.02 5.952 0.02 5.928C0.02 5.864 0.08 5.736 0.2 5.544C0.328 5.352 0.476 5.14 0.644 4.908C0.812 4.676 0.972 4.46 1.124 4.26C1.276 4.052 1.38 3.908 1.436 3.828C1.484 3.74 1.56 3.696 1.664 3.696C1.72 3.696 1.748 3.72 1.748 3.768C1.748 3.792 1.712 3.864 1.64 3.984C1.568 4.096 1.48 4.236 1.376 4.404C1.272 4.564 1.16 4.728 1.04 4.896C0.928 5.064 0.828 5.216 0.74 5.352C0.652 5.48 0.592 5.564 0.56 5.604C0.608 5.66 0.692 5.764 0.812 5.916C0.94 6.068 1.072 6.236 1.208 6.42C1.352 6.596 1.472 6.76 1.568 6.912C1.672 7.056 1.724 7.156 1.724 7.212C1.724 7.252 1.716 7.288 1.7 7.32C1.692 7.352 1.66 7.368 1.604 7.368ZM6.48031 0.599999C7.49631 0.599999 8.24831 0.767999 8.73631 1.104C9.23231 1.432 9.48031 2.016 9.48031 2.856C9.48031 3.696 9.23631 4.364 8.74831 4.86C8.26031 5.348 7.47231 5.592 6.38431 5.592H5.37631L5.34031 8.196L6.27631 8.28C6.27631 8.504 6.20831 8.744 6.07231 9H3.37231L3.33631 8.592C3.67231 8.464 4.01631 8.368 4.36831 8.304C4.32031 5.184 4.28031 2.864 4.24831 1.344C4.03231 1.304 3.68031 1.208 3.19231 1.056L3.25231 0.599999H6.48031ZM6.26431 4.812C6.95231 4.804 7.47631 4.632 7.83631 4.296C8.19631 3.952 8.37631 3.5 8.37631 2.94C8.37631 2.38 8.20031 1.992 7.84831 1.776C7.49631 1.552 6.93231 1.44 6.15631 1.44C6.01231 1.44 5.76831 1.444 5.42431 1.452C5.42431 1.46 5.41231 2.584 5.38831 4.824L6.26431 4.812ZM13.8387 3.768C13.7987 3.728 13.7107 3.708 13.5747 3.708C13.4387 3.708 13.2347 3.756 12.9627 3.852C12.6987 3.948 12.4587 4.06 12.2427 4.188C12.1947 5.964 12.1627 7.296 12.1467 8.184L13.1547 8.28C13.1547 8.504 13.0867 8.744 12.9507 9H10.1907L10.1547 8.58C10.5227 8.452 10.8827 8.356 11.2347 8.292C11.1867 6.26 11.1467 4.756 11.1147 3.78C10.6747 3.756 10.3227 3.708 10.0587 3.636L10.1067 3.012C10.5307 2.892 11.1587 2.832 11.9907 2.832C12.1187 3.032 12.1987 3.288 12.2307 3.6C13.1507 3.04 13.6987 2.76 13.8747 2.76C14.0507 2.76 14.2547 2.796 14.4867 2.868C14.7187 2.932 14.8907 3.004 15.0027 3.084C15.0027 3.884 14.9267 4.536 14.7747 5.04C14.6627 5.072 14.5307 5.088 14.3787 5.088C14.2347 5.088 14.1347 5.084 14.0787 5.076L13.8387 3.768ZM18.3173 8.424C18.9893 8.424 19.4413 8.216 19.6733 7.8C19.9133 7.376 20.0333 6.776 20.0333 6C20.0333 4.768 19.7613 3.996 19.2173 3.684C18.9933 3.556 18.6773 3.492 18.2693 3.492C17.8693 3.492 17.4893 3.576 17.1293 3.744C16.8093 4.36 16.6493 5.076 16.6493 5.892C16.6493 6.676 16.7533 7.28 16.9613 7.704C17.2013 8.184 17.6533 8.424 18.3173 8.424ZM15.5453 6C15.5453 4.984 15.7773 4.192 16.2413 3.624C16.7053 3.048 17.4213 2.76 18.3893 2.76C19.3573 2.76 20.0573 3.024 20.4893 3.552C20.9213 4.072 21.1373 4.844 21.1373 5.868C21.1373 6.892 20.9053 7.696 20.4413 8.28C19.9853 8.864 19.2893 9.156 18.3533 9.156C17.4173 9.156 16.7133 8.884 16.2413 8.34C15.7773 7.796 15.5453 7.016 15.5453 6ZM27.8223 4.104C27.8543 4.36 27.8703 4.656 27.8703 4.992C27.8703 5.328 27.8383 6.392 27.7743 8.184L28.7823 8.28C28.7823 8.504 28.7143 8.744 28.5783 9H25.8183L25.7823 8.58C26.1503 8.452 26.5103 8.356 26.8623 8.292C26.8143 6.164 26.7703 4.98 26.7303 4.74C26.6983 4.5 26.6423 4.3 26.5623 4.14C26.4823 3.972 26.3583 3.856 26.1903 3.792C26.0223 3.728 25.7663 3.696 25.4223 3.696C25.0863 3.696 24.6423 3.824 24.0903 4.08C24.0423 5.904 24.0103 7.272 23.9943 8.184L25.0023 8.28C25.0023 8.504 24.9343 8.744 24.7983 9H22.0383L22.0023 8.58C22.3703 8.452 22.7303 8.356 23.0823 8.292C23.0743 7.716 23.0543 6.904 23.0223 5.856C22.9903 4.8 22.9703 4.108 22.9623 3.78C22.5223 3.756 22.1703 3.708 21.9063 3.636L21.9543 3.012C22.3863 2.892 23.0143 2.832 23.8383 2.832C23.9503 3.032 24.0223 3.24 24.0543 3.456C24.4063 3.272 24.7543 3.112 25.0983 2.976C25.4423 2.832 25.6583 2.76 25.7463 2.76C26.6343 2.76 27.2543 3.032 27.6063 3.576C27.9743 3.376 28.3543 3.192 28.7463 3.024C29.1463 2.848 29.3863 2.76 29.4663 2.76C30.1943 2.76 30.7383 2.94 31.0983 3.3C31.4663 3.652 31.6503 4.232 31.6503 5.04C31.6503 5.28 31.6183 6.328 31.5543 8.184L32.5623 8.28C32.5623 8.504 32.4943 8.744 32.3583 9H29.5983L29.5623 8.58C29.9303 8.452 30.2903 8.356 30.6423 8.292C30.6103 7.028 30.5823 6.072 30.5583 5.424C30.5343 4.776 30.4423 4.328 30.2823 4.08C30.1223 3.824 29.8023 3.696 29.3223 3.696C28.8423 3.696 28.3423 3.832 27.8223 4.104ZM35.8837 8.424C36.5557 8.424 37.0077 8.216 37.2397 7.8C37.4797 7.376 37.5997 6.776 37.5997 6C37.5997 4.768 37.3277 3.996 36.7837 3.684C36.5597 3.556 36.2437 3.492 35.8357 3.492C35.4357 3.492 35.0557 3.576 34.6957 3.744C34.3757 4.36 34.2157 5.076 34.2157 5.892C34.2157 6.676 34.3197 7.28 34.5277 7.704C34.7677 8.184 35.2197 8.424 35.8837 8.424ZM33.1117 6C33.1117 4.984 33.3437 4.192 33.8077 3.624C34.2717 3.048 34.9877 2.76 35.9557 2.76C36.9237 2.76 37.6237 3.024 38.0557 3.552C38.4877 4.072 38.7037 4.844 38.7037 5.868C38.7037 6.892 38.4717 7.696 38.0077 8.28C37.5517 8.864 36.8557 9.156 35.9197 9.156C34.9837 9.156 34.2797 8.884 33.8077 8.34C33.3437 7.796 33.1117 7.016 33.1117 6ZM41.1887 0.0839996C41.4367 0.0839996 41.6127 0.0919995 41.7167 0.107999C41.7167 0.388 41.6647 0.708 41.5607 1.068C41.4887 5.788 41.4527 8.16 41.4527 8.184L42.4607 8.28C42.4607 8.504 42.3927 8.744 42.2567 9H39.4967L39.4607 8.58C39.8287 8.452 40.1887 8.356 40.5407 8.292L40.4207 1.032C39.9807 1.008 39.6287 0.959999 39.3647 0.887999L39.4127 0.263999C39.8207 0.144 40.4127 0.0839996 41.1887 0.0839996ZM45.2678 1.764C45.0598 1.812 44.8558 1.836 44.6558 1.836C44.4638 1.836 44.2718 1.824 44.0798 1.8C44.0318 1.576 44.0078 1.352 44.0078 1.128C44.0078 0.895999 44.0158 0.723999 44.0318 0.611999C44.2078 0.571999 44.3918 0.551999 44.5838 0.551999C44.7838 0.551999 44.9958 0.559999 45.2198 0.576C45.2678 0.783999 45.2918 0.987999 45.2918 1.188C45.2918 1.38 45.2838 1.572 45.2678 1.764ZM43.0838 3.024C43.7638 2.904 44.2918 2.844 44.6678 2.844C45.0438 2.844 45.2838 2.852 45.3878 2.868C45.3878 3.06 45.3638 3.272 45.3158 3.504C45.2678 3.736 45.2398 3.848 45.2318 3.84L45.1238 8.184L46.1318 8.28C46.1318 8.504 46.0638 8.744 45.9278 9H43.1678L43.1318 8.58C43.4998 8.452 43.8598 8.356 44.2118 8.292C44.1638 6.292 44.1238 4.792 44.0918 3.792C43.6278 3.792 43.2758 3.744 43.0358 3.648L43.0838 3.024ZM50.5432 2.76C51.3112 2.76 51.8672 2.952 52.2112 3.336C52.5552 3.712 52.7272 4.288 52.7272 5.064C52.7272 5.288 52.6952 6.328 52.6312 8.184L53.6392 8.28C53.6392 8.504 53.5712 8.744 53.4352 9H50.6752L50.6392 8.58C51.0072 8.452 51.3672 8.356 51.7192 8.292C51.6712 6.196 51.6272 5.032 51.5872 4.8C51.5552 4.56 51.4992 4.352 51.4192 4.176C51.3392 4 51.2192 3.876 51.0592 3.804C50.8992 3.732 50.6872 3.696 50.4232 3.696C49.8952 3.696 49.3832 3.824 48.8872 4.08C48.8392 5.904 48.8072 7.272 48.7912 8.184L49.7992 8.28C49.7992 8.504 49.7312 8.744 49.5952 9H46.8352L46.7992 8.58C47.1672 8.452 47.5272 8.356 47.8792 8.292C47.8312 6.26 47.7912 4.756 47.7592 3.78C47.3192 3.756 46.9672 3.708 46.7032 3.636L46.7512 3.012C47.1832 2.892 47.8112 2.832 48.6352 2.832C48.7312 2.976 48.8032 3.184 48.8512 3.456C49.1952 3.272 49.5392 3.112 49.8832 2.976C50.2352 2.832 50.4552 2.76 50.5432 2.76ZM59.0177 5.076L58.9577 8.172C59.3017 8.196 59.6457 8.252 59.9897 8.34L59.9657 8.76C59.8377 8.824 59.6057 8.896 59.2697 8.976C58.9417 9.048 58.6177 9.084 58.2977 9.084C58.1537 8.796 58.0737 8.52 58.0577 8.256C57.1457 8.856 56.5057 9.156 56.1377 9.156C55.5697 9.156 55.1137 9.004 54.7697 8.7C54.4257 8.396 54.2537 7.972 54.2537 7.428C54.2537 6.172 55.0217 5.524 56.5577 5.484C57.4537 5.46 57.9057 5.448 57.9137 5.448L57.9017 5.04C57.8857 4.488 57.7817 4.092 57.5897 3.852C57.3977 3.604 57.0537 3.48 56.5577 3.48C56.3497 3.48 56.1257 3.528 55.8857 3.624L55.5977 4.824C55.5577 4.832 55.4897 4.836 55.3937 4.836L54.9017 4.8C54.7737 4.456 54.7057 3.98 54.6977 3.372C54.8497 3.292 55.1977 3.172 55.7417 3.012C56.2857 2.844 56.6337 2.76 56.7857 2.76C57.6017 2.76 58.1777 2.94 58.5137 3.3C58.8497 3.66 59.0177 4.252 59.0177 5.076ZM56.4017 8.34C56.6337 8.34 57.1697 8.08 58.0097 7.56L57.9497 6.06C57.4057 6.108 56.9497 6.152 56.5817 6.192C56.2137 6.232 55.9177 6.34 55.6937 6.516C55.4697 6.684 55.3577 6.952 55.3577 7.32C55.3577 8 55.7057 8.34 56.4017 8.34ZM63.7105 0.599999C63.9265 0.576 64.0905 0.564 64.2025 0.564C64.3145 0.564 64.4985 0.584 64.7545 0.624L61.4665 9C61.2985 9.032 61.1425 9.048 60.9985 9.048C60.8545 9.048 60.7185 9.04 60.5905 9.024L63.7105 0.599999ZM66.2092 7.452C66.1612 7.452 66.1372 7.428 66.1372 7.38C66.1372 7.356 66.1732 7.288 66.2452 7.176C66.3172 7.056 66.4052 6.916 66.5092 6.756C66.6132 6.588 66.7212 6.42 66.8332 6.252C66.9532 6.084 67.0572 5.936 67.1452 5.808C67.2332 5.672 67.2932 5.584 67.3252 5.544C67.2772 5.488 67.1892 5.384 67.0612 5.232C66.9412 5.08 66.8092 4.916 66.6652 4.74C66.5212 4.556 66.3972 4.388 66.2932 4.236C66.1972 4.084 66.1492 3.984 66.1492 3.936C66.1492 3.832 66.1932 3.78 66.2812 3.78L66.3772 3.828C66.5772 4.1 66.8012 4.34 67.0492 4.548C67.2972 4.748 67.5572 4.948 67.8292 5.148C67.8532 5.156 67.8652 5.18 67.8652 5.22C67.8652 5.284 67.8012 5.412 67.6732 5.604C67.5532 5.796 67.4052 6.008 67.2292 6.24C67.0612 6.472 66.9012 6.688 66.7492 6.888C66.5972 7.088 66.4932 7.232 66.4372 7.32C66.3812 7.408 66.3052 7.452 66.2092 7.452Z" fill="white"/>
</svg>
